<svg width="34" height="24" viewBox="0 0 34 24" fill="none" xmlns="http://www.w3.org/2000/svg">
<path fill-rule="evenodd" clip-rule="evenodd" d="M17 1C13.087 1 9.61949 2.90531 7.01197 4.93614C4.37916 6.98666 2.43112 9.31482 1.53102 10.4779C0.822992 11.3928 0.822993 12.6072 1.53102 13.5221C2.43112 14.6852 4.37916 17.0133 7.01197 19.0639C9.61949 21.0947 13.087 23 17 23C20.913 23 24.3805 21.0947 26.988 19.0639C29.6208 17.0133 31.5689 14.6852 32.469 13.5221C33.177 12.6072 33.177 11.3928 32.469 10.4779C31.5689 9.31482 29.6208 6.98666 26.988 4.93614C24.3805 2.90531 20.913 1 17 1ZM17 18C21.0872 18 25.5 15.797 25.5 12C25.5 8.20304 21.0872 6 17 6C12.9128 6 8.40049 8.20304 8.40049 12C8.40049 15.797 12.9128 18 17 18Z" fill="url(#paint0_radial_704_37)" stroke="black" stroke-linejoin="round" stroke-dasharray="0.4 0.8 1.2 1.6"/>
<path fill-rule="evenodd" clip-rule="evenodd" d="M17 2C13.3316 2 10.0808 3.7321 7.63622 5.57831C5.16796 7.44242 3.34167 9.55893 2.49783 10.6163C1.83405 11.448 1.83406 12.552 2.49783 13.3837C3.34168 14.4411 5.16796 16.5576 7.63622 18.4217C10.0808 20.2679 13.3316 22 17 22C20.6684 22 23.9192 20.2679 26.3638 18.4217C28.832 16.5576 30.6583 14.4411 31.5022 13.3837C32.1659 12.552 32.1659 11.448 31.5022 10.6163C30.6583 9.55893 28.832 7.44242 26.3638 5.57831C23.9192 3.7321 20.6684 2 17 2ZM17 18.4217C20.8317 18.4217 26.3638 15.4518 26.3638 12C26.3638 8.54822 20.8317 5.57831 17 5.57831C13.1683 5.57831 7.63622 8.54822 7.63622 12C7.63622 15.4518 13.1683 18.4217 17 18.4217Z" fill="url(#paint1_radial_704_37)"/>
<g clip-path="url(#clip0_704_37)">
<path d="M23.2813 17.5549L20.2661 16.6901L17.9923 17.9995L16.4058 17.9989L14.1306 16.6901L11.1167 17.5549L10.2 14.5736L11.1168 11.2647L10.2 8.46726L11.1168 5L15.8261 7.7104H18.5719L23.2813 5L24.1981 8.46726L23.2813 11.2647L24.1981 14.5736L23.2813 17.5549Z" fill="#FF5C16"/>
<path d="M11.1174 5L15.8268 7.7123L15.6396 9.57372L11.1174 5ZM14.1313 14.5748L16.2034 16.0954L14.1313 16.69V14.5748ZM16.0378 12.0609L15.6396 9.57504L13.0904 11.2655L13.089 11.2648V11.2661L13.0969 13.0061L14.1307 12.061L16.0378 12.0609ZM23.2813 5L18.5719 7.7123L18.7585 9.57372L23.2813 5ZM20.2675 14.5748L18.1953 16.0954L20.2675 16.69V14.5748ZM21.3091 11.266V11.2647L21.3085 11.2654L18.7592 9.57504L18.361 12.0609H20.2674L21.3018 13.0059L21.3091 11.266Z" fill="#FF5C16"/>
<path d="M14.1307 16.6901L11.1168 17.5549L10.2 14.5749H14.1307V16.6901ZM16.0371 12.0603L16.6128 15.6542L15.8149 13.6559L13.0956 13.006L14.13 12.0604L16.0371 12.0603ZM20.2674 16.6901L23.2813 17.5549L24.1981 14.5748H20.2674C20.2674 14.5749 20.2674 16.6901 20.2674 16.6901ZM18.361 12.0603L17.7854 15.6542L18.5832 13.6559L21.3026 13.006L20.2676 12.0604L18.361 12.0603Z" fill="#E34807"/>
<path d="M10.2 14.5736L11.1168 11.2648H13.0884L13.0955 13.0054L15.8151 13.6553L16.6129 15.6535L16.2028 16.0935L14.1307 14.573H10.2V14.5736ZM24.1981 14.5736L23.2813 11.2648H21.3097L21.3025 13.0054L18.5832 13.6553L17.7853 15.6535L18.1953 16.0935L20.2675 14.573H24.1981V14.5736ZM18.5719 7.71045H15.8261L15.6397 9.57187L16.613 15.6515H17.7854L18.7592 9.57187L18.5719 7.71045Z" fill="#FF8D5D"/>
<path d="M11.1168 5L10.2 8.46726L11.1168 11.2647H13.0884L15.6389 9.57381L11.1168 5ZM15.4674 12.7821H14.5742L14.088 13.2413L15.8157 13.6538L15.4674 12.7814V12.7821ZM23.2813 5L24.1981 8.46726L23.2813 11.2647H21.3097L18.7592 9.57381L23.2813 5ZM18.9321 12.7821H19.8265L20.3127 13.2418L18.5831 13.6553L18.9321 12.7814V12.7821ZM17.9916 16.8135L18.1954 16.0948L17.7853 15.6548H16.612L16.202 16.0948L16.4057 16.8135" fill="#661800"/>
<path d="M17.9916 16.8135V18.0002H16.4059V16.8135H17.9916Z" fill="#C0C4CD"/>
<path d="M14.1313 16.6889L16.4071 17.9995V16.8128L16.2033 16.0942L14.1313 16.6889ZM20.2675 16.6889L17.9916 17.9995V16.8128L18.1954 16.0942L20.2675 16.6889Z" fill="#E7EBF6"/>
</g>
<defs>
<radialGradient id="paint0_radial_704_37" cx="0" cy="0" r="1" gradientUnits="userSpaceOnUse" gradientTransform="translate(17 12) rotate(90) scale(11 16)">
<stop stop-color="#FF8D5D"/>
<stop offset="1" stop-color="#FF5C16"/>
</radialGradient>
<radialGradient id="paint1_radial_704_37" cx="0" cy="0" r="1" gradientUnits="userSpaceOnUse" gradientTransform="translate(17 12) rotate(90) scale(10 15)">
<stop stop-color="#6E1C1C"/>
<stop offset="0.591346" stop-color="#431400"/>
<stop offset="1" stop-color="white"/>
</radialGradient>
<clipPath id="clip0_704_37">
<rect width="14" height="13" fill="white" transform="translate(10.2 5)"/>
</clipPath>
</defs>
</svg>
